<?xml version="1.0" encoding="UTF-8" standalone="no"?>
<!-- Created with Inkscape (http://www.inkscape.org/) -->

<svg
   width="250.0px"
   height="250.0px"
   viewBox="0 0 250.0 250.0"
   version="1.1"
   id="SVGRoot"
   sodipodi:docname="bineshan.svg"
   inkscape:version="1.1.2 (0a00cf5339, 2022-02-04)"
   xmlns:inkscape="http://www.inkscape.org/namespaces/inkscape"
   xmlns:sodipodi="http://sodipodi.sourceforge.net/DTD/sodipodi-0.dtd"
   xmlns="http://www.w3.org/2000/svg"
   xmlns:svg="http://www.w3.org/2000/svg">
  <sodipodi:namedview
     id="namedview493"
     pagecolor="#ffffff"
     bordercolor="#666666"
     borderopacity="1.0"
     inkscape:pageshadow="2"
     inkscape:pageopacity="0.0"
     inkscape:pagecheckerboard="0"
     inkscape:document-units="px"
     showgrid="true"
     inkscape:zoom="0.77771465"
     inkscape:cx="397.31796"
     inkscape:cy="149.79787"
     inkscape:window-width="1920"
     inkscape:window-height="1016"
     inkscape:window-x="0"
     inkscape:window-y="0"
     inkscape:window-maximized="1"
     inkscape:current-layer="layer1">
    <inkscape:grid
       type="xygrid"
       id="grid499" />
  </sodipodi:namedview>
  <defs
     id="defs488" />
  <g
     inkscape:label="Layer 1"
     inkscape:groupmode="layer"
     id="layer1">
    <path
       d="m 230.62579,47.367441 c -3.76967,3.912669 -8.80814,5.880958 -13.85448,5.880958 -4.80459,-0.0023 -9.61628,-1.786252 -13.34133,-5.375719 -7.63748,-7.358286 -7.86479,-19.555999 -0.50604,-27.194537 3.76939,-3.912668 8.80838,-5.880955 13.85447,-5.880955 4.80486,0 9.61628,1.786251 13.34133,5.375715 3.69985,3.562977 5.79019,8.354486 5.88574,13.493107 0.0998,5.136238 -1.81502,10.001951 -5.37943,13.701431 z M 150.14314,217.18238 c 0,11.22313 -9.13044,20.35343 -20.3536,20.35343 -11.22316,0 -20.35361,-9.1303 -20.35361,-20.35343 0,-11.22306 9.13045,-20.3535 20.35361,-20.3535 11.22316,0 20.3536,9.13044 20.3536,20.3535 z M 49.475923,69.698846 c -2.475664,-2.171853 -3.957859,-5.177011 -4.17335,-8.462318 -0.21523,-3.285211 0.862229,-6.458023 3.032371,-8.933931 2.170929,-2.475912 5.176003,-3.958105 8.4614,-4.173673 0.274811,-0.01995 0.55041,-0.02977 0.824434,-0.02977 2.988799,0 5.841901,1.070401 8.10942,3.060217 5.110648,4.480108 5.622474,12.28392 1.141241,17.393768 -4.481495,5.112333 -12.285396,5.622437 -17.395255,1.142226 z M 203.14598,164 c 2.2405,-4.08022 6.46922,-6.39344 10.82605,-6.39344 2.00372,0 4.03423,0.48807 5.91119,1.52058 2.88644,1.58516 4.98308,4.19758 5.90332,7.35839 0.92076,3.16081 0.5546,6.49155 -1.02969,9.37925 -3.2707,5.95764 -10.77906,8.14378 -16.73722,4.87296 -5.95818,-3.27103 -8.14487,-10.7802 -4.87365,-16.73774 z M 237.34725,12.670869 C 225.57262,1.3256092 206.76552,1.6775823 195.42215,13.451597 185.32552,23.930022 184.49322,39.980482 192.73414,51.383181 L 150.11375,95.16467 c -5.73744,-4.092221 -12.75445,-6.503554 -20.32421,-6.503554 -8.6168,0 -16.51597,3.124998 -22.62822,8.299525 L 77.679626,71.109315 c 4.842397,-9.106445 3.000087,-20.693463 -5.08125,-27.778844 -4.567848,-4.006117 -10.421562,-5.993552 -16.483679,-5.596045 -6.062118,0.397805 -11.606636,3.132039 -15.612001,7.700738 -4.005102,4.566416 -5.992299,10.420984 -5.594387,16.483979 0.396599,6.060514 3.132111,11.606165 7.699435,15.612281 4.309573,3.778545 9.65566,5.631859 14.981273,5.631859 4.662078,0 9.307357,-1.422275 13.226105,-4.219107 l 29.472248,25.844094 c -3.522152,5.46678 -5.568143,11.97023 -5.568143,18.94311 0,8.01691 2.706902,15.41358 7.252183,21.32808 l -42.6099,43.77186 c -5.012481,-3.38828 -10.932075,-5.15301 -17.108895,-5.03803 -7.918601,0.14584 -15.305954,3.36903 -20.800864,9.07282 -5.495172,5.70368 -8.44014,13.20582 -8.292891,21.1245 0.146986,7.91857 3.369914,15.30574 9.073228,20.8012 5.567354,5.36373 12.84788,8.29718 20.557551,8.29718 0.188982,0 0.376914,-0.002 0.56642,-0.006 7.918603,-0.14776 15.305956,-3.36904 20.801128,-9.07283 10.096356,-10.48083 10.928663,-26.53127 2.687742,-37.9317 l 42.620401,-43.7844 c 4.39593,3.13682 9.54384,5.28466 15.11566,6.11806 v 28.43973 c -14.49517,2.48316 -25.562161,15.1358 -25.562161,30.32916 0,16.96511 13.803551,30.76956 30.770711,30.76956 16.96689,0 30.7707,-13.80445 30.7707,-30.76956 0,-15.19336 -11.06725,-27.846 -25.56215,-30.32916 v -28.43981 c 9.20944,-1.37683 17.2585,-6.3478 22.67256,-13.43567 l 34.36557,18.86701 c -2.76123,9.93489 1.54782,20.85158 10.97014,26.02363 3.46361,1.90372 7.20939,2.80408 10.90661,2.80408 8.03829,0 15.84193,-4.26464 19.97538,-11.79544 2.92371,-5.32542 3.59827,-11.46976 1.89979,-17.30281 -1.69847,-5.83304 -5.56682,-10.65569 -10.89217,-13.57941 -9.42232,-5.17214 -20.94602,-2.94761 -27.847,4.7173 L 162.69862,135.8548 c 1.39716,-3.78093 2.16148,-7.86353 2.16148,-12.12342 0,-8.01928 -2.70717,-15.41586 -7.25244,-21.33044 l 42.61331,-43.773157 c 4.9899,3.359511 10.7717,5.033366 16.54851,5.033366 7.77844,0 15.54796,-3.033928 21.35757,-9.065672 5.49518,-5.701399 8.44067,-13.205816 8.29211,-21.122121 -0.14699,-7.918686 -3.36913,-15.305745 -9.07191,-20.801198"
       style="fill:#003399;fill-opacity:1;fill-rule:nonzero;stroke:none;stroke-width:0.0239454"
       id="path481-7"
       sodipodi:nodetypes="ccccscscsssssssscsccsscscccccccccscccscccsccsccccccsccccccssscccccscscccsccsccc"
       inkscape:export-filename="/home/ahmad/path481-7.png"
       inkscape:export-xdpi="300"
       inkscape:export-ydpi="300" />
  </g>
</svg>
